<svg xmlns="http://www.w3.org/2000/svg" viewBox="0 0 32 32">
  <!-- Sun Rays -->
  <g fill="#f8b619">
    <rect x="15" y="0" width="2" height="32" rx="1"/>
    <rect x="0" y="15" width="32" height="2" rx="1"/>
    <rect x="15" y="0" width="2" height="32" rx="1" transform="rotate(45 16 16)"/>
    <rect x="15" y="0" width="2" height="32" rx="1" transform="rotate(-45 16 16)"/>
    <rect x="15" y="0" width="2" height="32" rx="1" transform="rotate(22.5 16 16)"/>
    <rect x="15" y="0" width="2" height="32" rx="1" transform="rotate(-22.5 16 16)"/>
    <rect x="15" y="0" width="2" height="32" rx="1" transform="rotate(67.5 16 16)"/>
    <rect x="15" y="0" width="2" height="32" rx="1" transform="rotate(-67.5 16 16)"/>
  </g>
  <!-- Sun Center -->
  <circle cx="16" cy="16" r="8" fill="#f8b619"/>
  <!-- Navy D -->
  <text x="16" y="21" font-family="Arial, sans-serif" font-size="14" font-weight="900" fill="#1a1a5e" text-anchor="middle">D</text>
</svg>